<?xml version="1.0" encoding="UTF-8" standalone="no"?>
<!-- Created with Inkscape (http://www.inkscape.org/) -->

<svg
   width="210mm"
   height="210mm"
   viewBox="0 0 210 210"
   version="1.1"
   id="svg1"
   xml:space="preserve"
   inkscape:version="1.3 (0e150ed6c4, 2023-07-21)"
   sodipodi:docname="logo-project.svg"
   xmlns:inkscape="http://www.inkscape.org/namespaces/inkscape"
   xmlns:sodipodi="http://sodipodi.sourceforge.net/DTD/sodipodi-0.dtd"
   xmlns="http://www.w3.org/2000/svg"
   xmlns:svg="http://www.w3.org/2000/svg"><sodipodi:namedview
     id="namedview1"
     pagecolor="#505050"
     bordercolor="#eeeeee"
     borderopacity="1"
     inkscape:showpageshadow="0"
     inkscape:pageopacity="0"
     inkscape:pagecheckerboard="0"
     inkscape:deskcolor="#505050"
     inkscape:document-units="mm"
     inkscape:clip-to-page="false"
     inkscape:zoom="0.51213161"
     inkscape:cx="378.80888"
     inkscape:cy="590.66848"
     inkscape:window-width="1920"
     inkscape:window-height="1009"
     inkscape:window-x="-8"
     inkscape:window-y="-8"
     inkscape:window-maximized="1"
     inkscape:current-layer="layer1" /><defs
     id="defs1"><style
       type="text/css"
       id="style1">*{stroke-linejoin: round; stroke-linecap: butt}</style><clipPath
       id="p362c1fcbbd"><rect
         x="103.104"
         y="41.472"
         width="266.112"
         height="266.112"
         id="rect4" /></clipPath></defs><g
     inkscape:label="Layer 1"
     inkscape:groupmode="layer"
     id="layer1"><g
       id="figure_1"
       transform="matrix(0.53761171,0,0,0.53761171,-18.865738,-5.6829469)"><g
         id="patch_1"><path
           d="M 0,345.6 H 460.8 V 0 H 0 Z"
           style="fill:none"
           id="path1" /></g><g
         id="axes_1"><g
           id="PatchCollection_1"><path
             d="m 236.16,295.488 c 32.07897,0 62.84838,-12.74511 85.53164,-35.42836 C 344.37489,237.37638 357.12,206.60697 357.12,174.528 357.12,142.44903 344.37489,111.67962 321.69164,88.996364 299.00838,66.313109 268.23897,53.568 236.16,53.568 c -32.07897,0 -62.84838,12.745109 -85.53164,35.428364 C 127.94511,111.67962 115.2,142.44903 115.2,174.528 c 0,32.07897 12.74511,62.84838 35.42836,85.53164 22.68326,22.68325 53.45267,35.42836 85.53164,35.42836 z"
             clip-path="url(#p362c1fcbbd)"
             style="fill:#ffffff;stroke:#000000;stroke-width:10"
             id="path2" /><path
             d="m 252.71713,293.82999 -0.081,-0.81546 -0.0808,-0.8157 -0.0807,-0.81604 -0.0806,-0.81648 -0.0805,-0.81704 -0.0805,-0.81771 -0.0805,-0.81851 -0.0805,-0.81943 -0.0805,-0.8205 -0.0806,-0.8217 -0.0807,-0.82305 -0.0808,-0.82455 -0.0809,-0.82621 -0.081,-0.82802 -0.0812,-0.83 -0.0814,-0.83215 -0.0816,-0.83448 -0.0819,-0.83698 -0.0821,-0.83966 -0.0824,-0.84254 -0.0827,-0.84559 -0.083,-0.84886 -0.16716,-0.85232 -0.0842,-0.85598 -0.0846,-0.85985 -0.085,-0.86393 -0.0855,-0.86824 -0.086,-0.87276 -0.0865,-0.8775 -0.0871,-0.88249 -0.0876,-0.8877 -0.0882,-0.89315 -0.0888,-0.89884 -0.0894,-0.90479 -0.0901,-0.91099 -0.0908,-0.91744 -0.0915,-0.92415 -0.0922,-0.93114 -0.093,-0.93839 -0.0938,-0.94591 -0.0946,-0.95373 -0.0954,-0.96182 -0.0963,-0.97021 -0.0972,-0.97889 -0.0981,-0.98786 -0.099,-0.99715 -0.1,-1.00673 -0.10099,-1.01664 -0.102,-1.02685 -0.10304,-1.0374 -0.10411,-1.04826 -0.10519,-1.05944 -0.1063,-1.07097 -0.10743,-1.08283 -0.10858,-1.09501 -0.10974,-1.10755 -0.11094,-1.12042 -0.11213,-1.13363 -0.11335,-1.14718 -0.11458,-1.16108 -0.11582,-1.17532 -0.11706,-1.1899 -0.11831,-1.20481 -0.11956,-1.22006 -0.12079,-1.23563 -0.12203,-1.25154 -0.12325,-1.26775 -0.12444,-1.28427 -0.12562,-1.30109 -0.12675,-1.3182 -0.12784,-1.33556 -0.12888,-1.35319 -0.12985,-1.37105 -0.13075,-1.38913 -0.13155,-1.40739 -0.13226,-1.42582 -0.13284,-1.44438 -0.13328,-1.46305 -0.13355,-1.48177 -0.13364,-1.50053 -0.13351,-1.51925 -0.13312,-1.53791 -0.13246,-1.55643 -0.13147,-1.57478 -0.13011,-1.59286 -0.12831,-1.61061 -0.12603,-1.62797 -0.12319,-1.64482 -0.11971,-1.66107 -0.11549,-1.67663 -0.11044,-1.69135 -0.10441,-1.70514 -0.0973,-1.71782 -0.0888,-1.72923 -0.0789,-1.73921 -0.0672,-1.74752 -0.0536,-1.75396 -0.0376,-1.75826 -0.0189,-1.7601 0.003,-1.75918 0.0286,-1.75508 0.0585,-1.74738 0.0933,-1.73559 0.13381,-1.71914 0.18084,-1.69746 0.23517,-1.66988 0.29751,-1.63578 0.36843,-1.59456 0.44818,-1.54577 0.53647,-1.48915 0.63243,-1.42482 0.73447,-1.35336 0.84028,-1.27588 0.94707,-1.194 1.05189,-1.10968 1.15191,-1.02512 1.24487,-0.94234 1.32912,-0.86307 1.40377,-0.78855 1.46857,-0.71951 1.52376,-0.65625 1.56987,-0.59866 1.6077,-0.54647 1.63803,-0.4992 1.6617,-0.45637 1.6795,-0.41746 1.69216,-0.38199 1.70029,-0.34951 1.70451,-0.31965 1.70528,-0.29208 1.70305,-0.26648 1.69822,-0.24265 1.69112,-0.22034 1.68202,-0.1994 1.67121,-0.17967 1.65889,-0.16104 1.64529,-0.14339 1.63057,-0.12662 1.61488,-0.11069 1.59839,-0.0955 1.58121,-0.081 1.56346,-0.0671 1.54523,-0.0538 1.52664,-0.0411 1.50774,-0.0289 1.48863,-0.0172 1.46938,-0.006 1.45002,0.005 1.43065,0.0152 1.41128,0.0252 1.39198,0.0349 1.37277,0.0442 1.35371,0.0531 1.3348,0.0618 1.3161,0.0702 1.2976,0.0783 1.27937,0.0861 1.26137,0.0937 1.24367,0.10102 1.22624,0.10816 1.20913,0.11507 1.19233,0.1218 1.17584,0.12835 1.15968,0.13473 1.14386,0.14095 1.12838,0.14701 1.11322,0.15296 1.09842,0.15877 1.08395,0.16446 1.06983,0.17005 1.05605,0.17555 1.0426,0.18096 1.02949,0.18629 1.01672,0.19157 1.00428,0.19677 0.99216,0.20193 0.98037,0.20705 0.96889,0.21213 0.95773,0.21719 0.94688,0.22224 0.93633,0.22728 0.92609,0.23231 0.91612,0.23736 0.90645,0.24241 0.89707,0.2475 0.88795,0.25262 0.87911,0.25777 0.87052,0.26297 0.86221,0.26822 0.85413,0.27354 0.84631,0.27893 0.83872,0.28439 0.83136,0.28995 0.82424,0.29559 0.81732,0.30135 0.81063,0.30721 0.80415,0.31319 0.79786,0.31931 0.79176,0.32555 0.78587,0.33196 0.34099,0.33852 0.28882,2.08332 0.25228,2.09127 0.21566,2.096 0.17898,2.10008 0.14224,2.10352 0.10545,2.10633 0.0686,2.10848 0.0318,2.11001 -0.005,2.11089 -0.0419,2.11111 -0.0787,2.11071 -0.11552,2.10966 -0.15229,2.10796 -0.18902,2.10562 -0.22568,2.10265 -0.26228,2.09902 -0.2988,2.09477 -0.33523,2.08987 -0.37155,2.08434 -0.40777,2.07817 -0.44385,2.07137 -0.47981,2.06393 -0.51561,2.05588 -0.55127,2.04719 -0.58674,2.03788 -0.62205,2.02795 -0.65717,2.01739 -0.69207,2.00624 -0.72678,1.99446 -0.76126,1.98208 -0.79551,1.96909 -0.82952,1.95551 -0.86327,1.94132 -0.89676,1.92656 -0.92998,1.91119 -0.96292,1.89525 -0.99556,1.87873 -1.0279,1.86164 -1.05992,1.84398 -1.09162,1.82577 -1.123,1.80698 -1.15402,1.78766 -1.1847,1.76779 -1.21501,1.74738 -1.24496,1.72643 -1.27453,1.70497 -1.3037,1.68298 -1.33249,1.66049 -1.36086,1.63747 -1.38882,1.61397 -1.41635,1.58998 -1.44347,1.56549 -1.47013,1.54054 -1.49635,1.51511 -1.52211,1.48922 -1.54741,1.46289 -1.57223,1.43609 -1.59659,1.40887 -1.62045,1.38121 -1.64381,1.35314 -1.66669,1.32466 -1.68905,1.29576 -1.71089,1.26648 -1.73221,1.23681 -1.75302,1.20676 -1.77327,1.17634 -1.793,1.14557 -1.81218,1.11445 -1.8308,1.08299 -1.84886,1.0512 -1.86638,1.01908 -1.8833,0.98666 -1.89967,0.95394 -1.91545,0.92092 -1.93065,0.88763 -1.94527,0.85407 -1.95928,0.82024 -1.9727,0.78617 -1.98553,0.75185 -1.99774,0.71731 -2.00935,0.68255 -2.02034,0.64758 -2.03073,0.61241 -2.04048,0.57706 -2.04963,0.54153 -2.05814,0.50584 -2.06603,0.46999 -2.0733,0.434 -2.07992,0.39787 z"
             clip-path="url(#p362c1fcbbd)"
             style="stroke:#000000;stroke-width:10"
             id="path3" /><path
             d="m 117.43051,193.63691 0.64086,-0.56892 0.64717,-0.56499 0.65361,-0.56126 0.66016,-0.55775 0.66684,-0.55443 0.67366,-0.55131 0.68063,-0.54838 0.68775,-0.54564 0.69502,-0.54307 0.70248,-0.54068 0.7101,-0.53847 0.7179,-0.53642 0.72591,-0.53454 0.73411,-0.53281 0.74251,-0.53124 0.75113,-0.52982 0.75997,-0.52856 0.76904,-0.52744 0.77835,-0.52646 0.7879,-0.52562 0.79769,-0.52492 0.80775,-0.52435 0.81807,-0.52391 0.82867,-0.5236 0.83953,-0.52341 0.85069,-0.52333 0.86214,-0.52339 0.87388,-0.52355 0.88593,-0.52383 0.89829,-0.5242 0.91097,-0.5247 0.92396,-0.52528 0.93729,-0.52597 0.95095,-0.52675 0.96493,-0.52762 0.97927,-0.52858 0.99394,-0.52963 1.00896,-0.53075 1.02433,-0.53194 1.04004,-0.53322 1.05611,-0.53456 1.07251,-0.53595 1.08927,-0.53742 1.10637,-0.53893 1.12381,-0.54049 1.14157,-0.54211 1.15966,-0.54375 1.17806,-0.54543 1.19677,-0.54715 1.21576,-0.54889 1.23503,-0.55066 1.25454,-0.55243 1.27428,-0.55423 1.29424,-0.55604 1.31436,-0.55784 1.33462,-0.55967 1.355,-0.56148 1.37543,-0.56332 1.39589,-0.56514 1.41629,-0.56699 1.43662,-0.56885 1.45677,-0.57072 1.47669,-0.57263 1.4963,-0.5746 1.51549,-0.57663 1.53419,-0.57876 1.55226,-0.581 1.56957,-0.58342 1.58601,-0.58604 1.60139,-0.58895 1.61555,-0.59218 1.62828,-0.59588 1.63935,-0.60009 1.6485,-0.60499 1.65544,-0.61072 1.65984,-0.61746 1.66128,-0.62546 1.65936,-0.63496 1.65355,-0.6463 1.64325,-0.65984 1.62785,-0.67602 1.60659,-0.69534 1.57867,-0.71835 1.54325,-0.74563 1.49948,-0.7778 1.44661,-0.81541 1.38401,-0.85892 1.31144,-0.90853 1.22911,-0.96413 1.13789,-1.02514 1.03936,-1.09047 0.93579,-1.15852 0.82996,-1.22732 0.72486,-1.29475 0.62327,-1.35879 0.52751,-1.41779 0.4392,-1.47055 0.35927,-1.51639 0.28801,-1.55511 0.2252,-1.58685 0.17033,-1.612 0.12268,-1.63109 0.0815,-1.6447 0.046,-1.65343 0.0153,-1.65785 -0.011,-1.65848 -0.0336,-1.6558 -0.0531,-1.65025 -0.0699,-1.64218 -0.0843,-1.63193 -0.0967,-1.6198 -0.1074,-1.60603 -0.11656,-1.59085 -0.12442,-1.57448 -0.13115,-1.55707 -0.1369,-1.53879 -0.14178,-1.519792 -0.14592,-1.500181 -0.1494,-1.480083 -0.1523,-1.459598 -0.15471,-1.438815 -0.15666,-1.417816 -0.15824,-1.396675 -0.15946,-1.375459 -0.1604,-1.354225 -0.16107,-1.333029 -0.16151,-1.311916 -0.16176,-1.29093 -0.16182,-1.270107 -0.16173,-1.249483 -0.16151,-1.229084 -0.16119,-1.20894 -0.16075,-1.189068 -0.16025,-1.169494 -0.15966,-1.150229 -0.15902,-1.131291 -0.15834,-1.11269 -0.1576,-1.094436 -0.15685,-1.076537 -0.15608,-1.059001 -0.15527,-1.041829 -0.15447,-1.025028 -0.15366,-1.008596 -0.15286,-0.992536 -0.15205,-0.976848 -0.15126,-0.96153 -0.15048,-0.94658 -0.14971,-0.931995 -0.14897,-0.917771 -0.14826,-0.903906 -0.14755,-0.890394 -0.14689,-0.87723 -0.14624,-0.86441 -0.14564,-0.851925 -0.14506,-0.839774 -0.14453,-0.827946 -2.27441,-0.816439 -2.08285,0.0058 -2.07654,0.344303 -2.06957,0.3806 -2.06198,0.416783 -2.05377,0.452839 -2.04493,0.488757 -2.03545,0.524525 -2.02538,0.560134 -2.01467,0.595572 -2.00335,0.63083 -1.99143,0.665894 -1.97889,0.700756 -1.96576,0.735404 -1.95202,0.769829 -1.9377,0.804019 -1.92277,0.837964 -1.90727,0.871654 -1.89118,0.905078 -1.87453,0.938227 -1.85728,0.971089 -1.83949,1.003657 -1.82113,1.035917 -1.80222,1.067864 -1.78275,1.099484 -1.76274,1.130769 -1.7422,1.161711 -1.72113,1.192297 -1.69953,1.222522 -1.67742,1.252373 -1.65479,1.281844 -1.63165,1.310923 -1.60803,1.339604 -1.58391,1.367876 -1.55931,1.395731 -1.53424,1.423162 -1.50869,1.450159 -1.4827,1.476714 -1.45623,1.50282 -1.42935,1.528467 -1.402,1.55365 -1.37425,1.578358 -1.34607,1.602586 -1.31749,1.626326 -1.28849,1.649571 -1.25911,1.672314 -1.22934,1.69454 -1.19921,1.71627 -1.1687,1.73745 -1.13783,1.75812 -1.10663,1.77825 -1.07509,1.79783 -1.04321,1.81688 -1.01102,1.83536 -0.97853,1.85329 -0.94572,1.87065 -0.91265,1.88744 -0.87927,1.90366 -0.84566,1.9193 -0.81176,1.93436 -0.77762,1.94881 -0.74326,1.96269 -0.70865,1.97596 -0.67385,1.98863 -0.63882,2.00069 -0.60361,2.01215 -0.56821,2.023 -0.53264,2.03321 -0.4969,2.04283 -0.46102,2.05181 -0.425,2.06017 -0.38884,2.0679 -0.35257,2.07501 -0.31618,2.08147 -0.27972,2.08731 -0.24315,2.09252 -0.20651,2.09707 -0.16981,2.101 -0.13307,2.10428 -0.0963,2.10693 -0.0595,2.10893 -0.0226,2.11028 0.0142,2.111 0.0511,2.11108 0.0879,2.1105 0.1247,2.1093 0.16146,2.10743 0.19817,2.10494 0.23482,2.10181 0.27141,2.09802 z"
             clip-path="url(#p362c1fcbbd)"
             style="stroke:#000000;stroke-width:10"
             id="path4" /></g></g></g><text
       xml:space="preserve"
       style="font-weight:bold;font-size:31.75px;line-height:1;font-family:Comfortaa;-inkscape-font-specification:'Comfortaa Bold';letter-spacing:-3.96875px;word-spacing:-0.129646px;fill:#1a1a1a;stroke-width:0.799999;stroke-linecap:round;stroke-miterlimit:128.2;paint-order:markers stroke fill"
       x="13.881531"
       y="186.39568"
       id="text1"><tspan
         sodipodi:role="line"
         id="tspan1"
         style="font-style:normal;font-variant:normal;font-weight:normal;font-stretch:normal;font-size:31.75px;font-family:'Futura Hv BT';-inkscape-font-specification:'Futura Hv BT';letter-spacing:-3.96875px;fill:#1a1a1a;stroke-width:0.8"
         x="13.881531"
         y="186.39568">Q-BEACHBALL</tspan></text><path
       style="fill:#1a1a1a;stroke-width:5.90399;stroke-linecap:round;stroke-miterlimit:128.2;paint-order:markers stroke fill"
       d="M 367.09314,584.78288 C 302.12413,572.86507 244.66773,538.00872 205.51814,486.76218 146.77712,409.8706 136.92888,301.57529 180.83514,215.33765 243.41199,92.428505 393.25345,43.291936 519.39774,104.31492 c 68.55167,33.16225 116.39652,92.00701 136.89188,168.36442 6.81444,25.38779 8.60144,70.49618 3.95498,99.83278 -8.29275,52.35835 -31.51096,98.56144 -68.98356,137.27381 -36.23894,37.43792 -79.2508,61.47436 -130.99218,73.20273 -19.21598,4.35573 -73.51212,5.40129 -93.17572,1.79422 z m 64.32784,-16.78857 c 0.41526,-0.41651 -2.21599,-30.1931 -5.84721,-66.17018 -13.76746,-136.40349 -15.29991,-174.77794 -7.81041,-195.58017 9.60751,-26.68512 41.41302,-39.45565 104.56331,-41.9842 35.08253,-1.40471 67.18412,1.33309 95.28407,8.12634 10.41103,2.51691 19.31874,4.1866 19.79491,3.71041 0.47616,-0.47617 -1.15734,-7.21615 -3.63005,-14.97773 C 602.78968,163.85647 513.29296,97.865117 411.67695,97.351968 c -13.38156,-0.06758 -24.68709,0.234131 -25.12342,0.67046 -0.43634,0.43633 1.3016,15.244692 3.86205,32.907462 13.17525,90.88665 10.92922,124.10304 -9.61112,142.13769 -9.87448,8.6699 -19.87782,13.32357 -65.45583,30.45077 -65.70467,24.69037 -136.044,62.29584 -138.28475,73.93109 -1.12723,5.85326 9.14648,38.40556 18.06801,57.24861 34.62385,73.12844 104.30312,123.3313 185.21087,133.44157 13.15818,1.64425 49.39685,1.54115 51.07822,-0.14531 z"
       id="path5"
       transform="scale(0.26458333)" /></g></svg>
